<svg xmlns="http://www.w3.org/2000/svg" width="165" height="50" viewBox="0 0 165 50"><defs><style>.cls-1{fill:#fff;}.cls-2{fill:#ccc;}</style></defs><title>cace</title><g id="footer"><path class="cls-1" d="M71.11,26.17a10.61,10.61,0,0,1-4.3-4.42,14.15,14.15,0,0,1-1.51-6.68,14,14,0,0,1,1.58-6.76,11.18,11.18,0,0,1,4.45-4.55,13.22,13.22,0,0,1,6.58-1.61,14.68,14.68,0,0,1,3.94.55,13,13,0,0,1,3.49,1.51A3.11,3.11,0,0,1,87,6.87a2.82,2.82,0,0,1-.53,1.78,1.67,1.67,0,0,1-1.38.68,3,3,0,0,1-1.16-.25,10,10,0,0,1-1.21-.6,13.64,13.64,0,0,0-2.11-1,6.57,6.57,0,0,0-2.31-.38,5.88,5.88,0,0,0-4.8,2A9,9,0,0,0,71.79,15a8.88,8.88,0,0,0,1.68,5.81,5.88,5.88,0,0,0,4.8,2,6.2,6.2,0,0,0,2.24-.38,18.88,18.88,0,0,0,2.19-1A9.81,9.81,0,0,1,84,20.72a2.91,2.91,0,0,1,1.11-.23,1.67,1.67,0,0,1,1.36.7A2.76,2.76,0,0,1,87,23a2.82,2.82,0,0,1-.38,1.48,3.37,3.37,0,0,1-1.23,1.13,13.19,13.19,0,0,1-3.62,1.58,15.6,15.6,0,0,1-4.22.58,13,13,0,0,1-6.46-1.56"/><path class="cls-1" d="M109.46,4.69q2.49,2.54,2.49,7.71V24.66a2.84,2.84,0,0,1-.8,2.14,3,3,0,0,1-2.21.78,2.94,2.94,0,0,1-2.14-.8,2.81,2.81,0,0,1-.83-2.11V23.56a6.56,6.56,0,0,1-2.69,3.07A8.07,8.07,0,0,1,99,27.73a9.86,9.86,0,0,1-4.47-1A8,8,0,0,1,91.39,24,7,7,0,0,1,90.24,20a6.21,6.21,0,0,1,1.38-4.27,8.31,8.31,0,0,1,4.5-2.26,41,41,0,0,1,8.59-.7H106V11.65a5.15,5.15,0,0,0-1.06-3.59,4.49,4.49,0,0,0-3.42-1.13,10.87,10.87,0,0,0-3,.43Q97,7.78,95,8.58a5,5,0,0,1-1.91.65,1.89,1.89,0,0,1-1.48-.65A2.49,2.49,0,0,1,91,6.87a2.58,2.58,0,0,1,.43-1.48,4.05,4.05,0,0,1,1.43-1.18A16.39,16.39,0,0,1,97,2.7a21.65,21.65,0,0,1,4.8-.55q5.13,0,7.61,2.54m-5.08,16.84A6.1,6.1,0,0,0,106,17.18V16.12h-.9a34.7,34.7,0,0,0-5.23.3,5.07,5.07,0,0,0-2.66,1.06,2.69,2.69,0,0,0-.81,2.06,3.41,3.41,0,0,0,1.13,2.64,4,4,0,0,0,2.79,1,5.37,5.37,0,0,0,4.1-1.68"/><path class="cls-1" d="M122.17,26.17a10.61,10.61,0,0,1-4.3-4.42,14.15,14.15,0,0,1-1.51-6.68,14,14,0,0,1,1.58-6.76,11.19,11.19,0,0,1,4.45-4.55A13.21,13.21,0,0,1,129,2.15a14.7,14.7,0,0,1,3.95.55,13,13,0,0,1,3.49,1.51A3.11,3.11,0,0,1,138,6.87a2.82,2.82,0,0,1-.53,1.78,1.67,1.67,0,0,1-1.38.68A3,3,0,0,1,135,9.08a10.09,10.09,0,0,1-1.2-.6,13.69,13.69,0,0,0-2.11-1,6.57,6.57,0,0,0-2.31-.38,5.88,5.88,0,0,0-4.8,2A9,9,0,0,0,122.85,15a8.88,8.88,0,0,0,1.68,5.81,5.88,5.88,0,0,0,4.8,2,6.2,6.2,0,0,0,2.24-.38,18.84,18.84,0,0,0,2.19-1,9.72,9.72,0,0,1,1.31-.68,2.92,2.92,0,0,1,1.11-.23,1.67,1.67,0,0,1,1.36.7,2.77,2.77,0,0,1,.55,1.76,2.82,2.82,0,0,1-.38,1.48,3.38,3.38,0,0,1-1.23,1.13,13.2,13.2,0,0,1-3.62,1.58,15.59,15.59,0,0,1-4.22.58,13,13,0,0,1-6.46-1.56"/><path class="cls-1" d="M163.08,21.25a2.72,2.72,0,0,1,.53,1.76,3,3,0,0,1-1.86,2.61,16.86,16.86,0,0,1-3.87,1.53,16,16,0,0,1-4.12.58q-5.93,0-9.4-3.42T140.89,15a14.34,14.34,0,0,1,1.51-6.68,11,11,0,0,1,4.25-4.52,12,12,0,0,1,6.21-1.61,11.14,11.14,0,0,1,5.78,1.46,9.9,9.9,0,0,1,3.82,4.12A13.68,13.68,0,0,1,163.81,14q0,2.16-1.91,2.16H147.07a7.91,7.91,0,0,0,2,5.1,6.6,6.6,0,0,0,4.83,1.63,9.16,9.16,0,0,0,2.84-.4,28.09,28.09,0,0,0,2.79-1.11,5.57,5.57,0,0,1,2.21-.8,1.7,1.7,0,0,1,1.38.65M148.9,8.18a7.59,7.59,0,0,0-1.84,4.62h11.36a7.18,7.18,0,0,0-1.51-4.65A5,5,0,0,0,153,6.57a5.4,5.4,0,0,0-4.09,1.61"/><path class="cls-1" d="M68.15,38.06A2.78,2.78,0,0,1,67,36.85a4.66,4.66,0,0,1,0-3.72,2.78,2.78,0,0,1,1.12-1.21,3.34,3.34,0,0,1,1.71-.42,3.67,3.67,0,0,1,1.21.2,2.94,2.94,0,0,1,1,.58.47.47,0,0,1,.18.39.46.46,0,0,1-.1.3.29.29,0,0,1-.23.12.5.5,0,0,1-.32-.13,3.43,3.43,0,0,0-.85-.49,2.5,2.5,0,0,0-.87-.14,2,2,0,0,0-1.64.69,3,3,0,0,0-.57,2,3,3,0,0,0,.57,2,2,2,0,0,0,1.64.69,2.38,2.38,0,0,0,.85-.15A4.1,4.1,0,0,0,71.6,37a.64.64,0,0,1,.32-.13.29.29,0,0,1,.23.12.46.46,0,0,1,.1.3.47.47,0,0,1-.18.39,2.93,2.93,0,0,1-1,.58,3.66,3.66,0,0,1-1.21.2A3.32,3.32,0,0,1,68.15,38.06Z"/><path class="cls-1" d="M76.93,34a2,2,0,0,1,.46,1.44V38a.46.46,0,0,1-.13.34.48.48,0,0,1-.35.12.43.43,0,0,1-.47-.47v-.36a1.36,1.36,0,0,1-.55.63,1.62,1.62,0,0,1-.85.22,1.92,1.92,0,0,1-.85-.19,1.47,1.47,0,0,1-.61-.53,1.37,1.37,0,0,1-.22-.76,1.16,1.16,0,0,1,.27-.81,1.59,1.59,0,0,1,.88-.42,8.86,8.86,0,0,1,1.69-.13h.22v-.28a1.14,1.14,0,0,0-.22-.79.94.94,0,0,0-.72-.24,2.29,2.29,0,0,0-.64.09,4.81,4.81,0,0,0-.66.25,1,1,0,0,1-.37.15.3.3,0,0,1-.24-.11.4.4,0,0,1-.09-.27.42.42,0,0,1,.08-.26.87.87,0,0,1,.27-.22,3.33,3.33,0,0,1,.8-.3,3.72,3.72,0,0,1,.88-.11A1.87,1.87,0,0,1,76.93,34Zm-.83,3.35a1.31,1.31,0,0,0,.34-.94V36.2h-.17a7.58,7.58,0,0,0-1.16.07,1.14,1.14,0,0,0-.58.23.6.6,0,0,0-.17.46.73.73,0,0,0,.25.57.92.92,0,0,0,.63.22A1.14,1.14,0,0,0,76.1,37.38Zm-.55-4.28a.27.27,0,0,1-.19-.08.24.24,0,0,1-.08-.18.26.26,0,0,1,.07-.17l1-1.37a.55.55,0,0,1,.45-.26.42.42,0,0,1,.31.13.41.41,0,0,1,.13.3.55.55,0,0,1-.23.42L75.73,33A.27.27,0,0,1,75.55,33.1Z"/><path class="cls-1" d="M85.89,35.47V38a.44.44,0,0,1-.14.34.52.52,0,0,1-.36.12.5.5,0,0,1-.35-.12.44.44,0,0,1-.14-.34V35.48a1.38,1.38,0,0,0-.21-.86.81.81,0,0,0-.67-.27,1.05,1.05,0,0,0-.84.36,1.48,1.48,0,0,0-.31,1V38a.44.44,0,0,1-.14.34.52.52,0,0,1-.36.12.5.5,0,0,1-.35-.12A.44.44,0,0,1,81.9,38V35.48a1.38,1.38,0,0,0-.21-.86.81.81,0,0,0-.67-.27,1.06,1.06,0,0,0-.85.36,1.46,1.46,0,0,0-.31,1V38a.44.44,0,0,1-.14.34.5.5,0,0,1-.35.12.52.52,0,0,1-.35-.12.43.43,0,0,1-.14-.34V34a.43.43,0,0,1,.15-.34.51.51,0,0,1,.35-.13.47.47,0,0,1,.33.12.43.43,0,0,1,.13.33v.36a1.48,1.48,0,0,1,.59-.62,1.75,1.75,0,0,1,.87-.21,1.66,1.66,0,0,1,.9.22,1.33,1.33,0,0,1,.53.69,1.61,1.61,0,0,1,.63-.66,1.83,1.83,0,0,1,.95-.25Q85.89,33.56,85.89,35.47Z"/><path class="cls-1" d="M90.71,34a2,2,0,0,1,.46,1.44V38a.46.46,0,0,1-.13.34.48.48,0,0,1-.35.12.43.43,0,0,1-.47-.47v-.36a1.36,1.36,0,0,1-.55.63,1.62,1.62,0,0,1-.85.22,1.92,1.92,0,0,1-.85-.19,1.46,1.46,0,0,1-.61-.53,1.37,1.37,0,0,1-.22-.76,1.16,1.16,0,0,1,.27-.81,1.58,1.58,0,0,1,.88-.42A8.85,8.85,0,0,1,90,35.64h.22v-.28a1.14,1.14,0,0,0-.22-.79.93.93,0,0,0-.72-.24,2.29,2.29,0,0,0-.64.09,4.81,4.81,0,0,0-.66.25,1,1,0,0,1-.37.15.3.3,0,0,1-.24-.11.4.4,0,0,1-.09-.27.42.42,0,0,1,.08-.26.87.87,0,0,1,.27-.22,3.33,3.33,0,0,1,.8-.3,3.72,3.72,0,0,1,.88-.11A1.87,1.87,0,0,1,90.71,34Zm-.83,3.35a1.31,1.31,0,0,0,.34-.94V36.2H90a7.57,7.57,0,0,0-1.16.07,1.14,1.14,0,0,0-.58.23.6.6,0,0,0-.17.46.73.73,0,0,0,.25.57.92.92,0,0,0,.63.22A1.14,1.14,0,0,0,89.88,37.38Z"/><path class="cls-1" d="M95.6,34a.43.43,0,0,1-.11.32.57.57,0,0,1-.37.13l-.29,0a1.25,1.25,0,0,0-.91.43,1.38,1.38,0,0,0-.3.89V38a.44.44,0,0,1-.14.35.52.52,0,0,1-.35.12.54.54,0,0,1-.35-.12.43.43,0,0,1-.14-.35V34a.43.43,0,0,1,.14-.34.52.52,0,0,1,.35-.12.46.46,0,0,1,.32.12.43.43,0,0,1,.13.33v.47a1.43,1.43,0,0,1,.56-.65,1.88,1.88,0,0,1,.83-.26h.14Q95.6,33.55,95.6,34Z"/><path class="cls-1" d="M99.88,34a2,2,0,0,1,.46,1.44V38a.46.46,0,0,1-.13.34.48.48,0,0,1-.35.12A.43.43,0,0,1,99.4,38v-.36a1.36,1.36,0,0,1-.55.63,1.62,1.62,0,0,1-.85.22,1.92,1.92,0,0,1-.85-.19,1.46,1.46,0,0,1-.61-.53,1.37,1.37,0,0,1-.22-.76,1.16,1.16,0,0,1,.27-.81,1.58,1.58,0,0,1,.88-.42,8.85,8.85,0,0,1,1.69-.13h.22v-.28a1.14,1.14,0,0,0-.22-.79.93.93,0,0,0-.72-.24,2.29,2.29,0,0,0-.64.09,4.81,4.81,0,0,0-.66.25,1,1,0,0,1-.37.15.3.3,0,0,1-.24-.11.4.4,0,0,1-.09-.27.42.42,0,0,1,.08-.26.87.87,0,0,1,.27-.22,3.33,3.33,0,0,1,.8-.3,3.72,3.72,0,0,1,.88-.11A1.87,1.87,0,0,1,99.88,34Zm-.83,3.35a1.31,1.31,0,0,0,.34-.94V36.2h-.17a7.57,7.57,0,0,0-1.16.07,1.14,1.14,0,0,0-.58.23.6.6,0,0,0-.17.46.73.73,0,0,0,.25.57.92.92,0,0,0,.63.22A1.14,1.14,0,0,0,99.06,37.38Z"/><path class="cls-1" d="M110.82,38a.39.39,0,0,1-.15.31.51.51,0,0,1-.33.13.42.42,0,0,1-.24-.07.45.45,0,0,1-.17-.21l-.64-1.45h-3.55l-.64,1.45a.46.46,0,0,1-.42.28.52.52,0,0,1-.34-.13.39.39,0,0,1-.15-.31.53.53,0,0,1,0-.19l2.73-6a.51.51,0,0,1,.22-.24.61.61,0,0,1,.63,0,.52.52,0,0,1,.22.24l2.73,6A.54.54,0,0,1,110.82,38Zm-4.72-2.09h2.84l-1.42-3.21Z"/><path class="cls-1" d="M114.9,34a.43.43,0,0,1-.11.32.57.57,0,0,1-.37.13l-.29,0a1.25,1.25,0,0,0-.91.43,1.38,1.38,0,0,0-.3.89V38a.44.44,0,0,1-.14.35.52.52,0,0,1-.35.12.54.54,0,0,1-.35-.12.43.43,0,0,1-.14-.35V34a.43.43,0,0,1,.14-.34.52.52,0,0,1,.35-.12.46.46,0,0,1,.32.12.43.43,0,0,1,.13.33v.47a1.43,1.43,0,0,1,.56-.65,1.88,1.88,0,0,1,.83-.26h.14Q114.9,33.55,114.9,34Z"/><path class="cls-1" d="M120,33.71a.46.46,0,0,1,.13.34v4a2.17,2.17,0,0,1-.58,1.64,2.37,2.37,0,0,1-1.7.55,3.49,3.49,0,0,1-1.74-.4.58.58,0,0,1-.36-.48.4.4,0,0,1,.09-.27A.29.29,0,0,1,116,39a1,1,0,0,1,.4.15,4.87,4.87,0,0,0,.65.26,2.48,2.48,0,0,0,.72.09,1.19,1.19,0,0,0,1.34-1.35v-.75a1.48,1.48,0,0,1-.62.66,1.92,1.92,0,0,1-1,.24,2.1,2.1,0,0,1-1.11-.29,2,2,0,0,1-.75-.82,2.72,2.72,0,0,1-.27-1.23,2.68,2.68,0,0,1,.27-1.23,2,2,0,0,1,.75-.83,2.05,2.05,0,0,1,1.1-.3,1.91,1.91,0,0,1,1,.23,1.52,1.52,0,0,1,.63.66V34a.45.45,0,0,1,.13-.34.49.49,0,0,1,.35-.13A.47.47,0,0,1,120,33.71Zm-1.2,3.36a2,2,0,0,0,0-2.3,1.22,1.22,0,0,0-1-.42,1.26,1.26,0,0,0-1,.42,2,2,0,0,0,0,2.31,1.26,1.26,0,0,0,1,.42A1.24,1.24,0,0,0,118.75,37.07Z"/><path class="cls-1" d="M125.53,37.32a.42.42,0,0,1,.09.27.56.56,0,0,1-.35.47,3.1,3.1,0,0,1-.74.3,3,3,0,0,1-.77.11,2.39,2.39,0,0,1-1.77-.65,2.43,2.43,0,0,1-.65-1.79,2.8,2.8,0,0,1,.29-1.29,2.1,2.1,0,0,1,.8-.87,2.25,2.25,0,0,1,1.18-.31,1.92,1.92,0,0,1,1.5.61,2.36,2.36,0,0,1,.55,1.65c0,.26-.12.39-.35.39h-3q.1,1.5,1.44,1.5a1.77,1.77,0,0,0,.62-.1,4.48,4.48,0,0,0,.55-.25l.16-.08a.53.53,0,0,1,.22-.06A.27.27,0,0,1,125.53,37.32Zm-2.81-2.69a1.67,1.67,0,0,0-.41,1h2.5a1.62,1.62,0,0,0-.33-1,1.07,1.07,0,0,0-.86-.35A1.18,1.18,0,0,0,122.72,34.64Z"/><path class="cls-1" d="M131.16,35.47V38a.45.45,0,0,1-.13.34.52.52,0,0,1-.36.12.49.49,0,0,1-.35-.13.45.45,0,0,1-.13-.34V35.52a1.35,1.35,0,0,0-.24-.88.92.92,0,0,0-.74-.28,1.27,1.27,0,0,0-.95.37,1.36,1.36,0,0,0-.36,1V38a.45.45,0,0,1-.13.34.49.49,0,0,1-.35.13.51.51,0,0,1-.36-.13.44.44,0,0,1-.14-.34V34a.44.44,0,0,1,.14-.33.5.5,0,0,1,.35-.13.46.46,0,0,1,.34.13.45.45,0,0,1,.13.33v.4a1.58,1.58,0,0,1,.65-.65,2,2,0,0,1,.94-.22Q131.16,33.56,131.16,35.47Z"/><path class="cls-1" d="M135.3,37.82a.35.35,0,0,1,.09.26.34.34,0,0,1-.15.3.7.7,0,0,1-.44.08l-.26,0a1.7,1.7,0,0,1-1.17-.48,1.78,1.78,0,0,1-.39-1.25V34.43h-.58q-.43,0-.43-.38a.36.36,0,0,1,.11-.28.45.45,0,0,1,.31-.1H133v-1a.46.46,0,0,1,.13-.35.49.49,0,0,1,.35-.13.51.51,0,0,1,.36.13.45.45,0,0,1,.14.35v1h1a.45.45,0,0,1,.31.1.36.36,0,0,1,.11.28.35.35,0,0,1-.11.28.47.47,0,0,1-.31.1h-1v2.35a1,1,0,0,0,.19.67.82.82,0,0,0,.58.24l.27,0A.49.49,0,0,1,135.3,37.82Z"/><path class="cls-1" d="M136.39,32.47a.53.53,0,0,1-.17-.41.52.52,0,0,1,.17-.4.64.64,0,0,1,.45-.15.64.64,0,0,1,.44.15.51.51,0,0,1,.17.4.53.53,0,0,1-.16.41.72.72,0,0,1-.89,0Zm.09,5.87a.43.43,0,0,1-.14-.35V34.05a.44.44,0,0,1,.14-.35.52.52,0,0,1,.35-.12.5.5,0,0,1,.35.12.45.45,0,0,1,.14.35V38a.44.44,0,0,1-.14.35.52.52,0,0,1-.35.12A.54.54,0,0,1,136.48,38.34Z"/><path class="cls-1" d="M143.08,35.47V38a.45.45,0,0,1-.13.34.52.52,0,0,1-.36.12.49.49,0,0,1-.35-.13.45.45,0,0,1-.13-.34V35.52a1.35,1.35,0,0,0-.24-.88.92.92,0,0,0-.74-.28,1.27,1.27,0,0,0-.95.37,1.36,1.36,0,0,0-.36,1V38a.45.45,0,0,1-.13.34.49.49,0,0,1-.35.13.51.51,0,0,1-.36-.13.44.44,0,0,1-.14-.34V34a.44.44,0,0,1,.14-.33.5.5,0,0,1,.35-.13.46.46,0,0,1,.34.13.45.45,0,0,1,.13.33v.4a1.58,1.58,0,0,1,.65-.65,2,2,0,0,1,.94-.22Q143.08,33.56,143.08,35.47Z"/><path class="cls-1" d="M147.89,34a2,2,0,0,1,.46,1.44V38a.46.46,0,0,1-.13.34.48.48,0,0,1-.35.12.43.43,0,0,1-.47-.47v-.36a1.36,1.36,0,0,1-.55.63,1.62,1.62,0,0,1-.85.22,1.92,1.92,0,0,1-.85-.19,1.46,1.46,0,0,1-.61-.53,1.37,1.37,0,0,1-.22-.76,1.16,1.16,0,0,1,.27-.81,1.58,1.58,0,0,1,.88-.42,8.85,8.85,0,0,1,1.69-.13h.22v-.28a1.14,1.14,0,0,0-.22-.79.93.93,0,0,0-.72-.24,2.29,2.29,0,0,0-.64.09,4.81,4.81,0,0,0-.66.25,1,1,0,0,1-.37.15.3.3,0,0,1-.24-.11.4.4,0,0,1-.09-.27.42.42,0,0,1,.08-.26.87.87,0,0,1,.27-.22,3.33,3.33,0,0,1,.8-.3,3.72,3.72,0,0,1,.88-.11A1.87,1.87,0,0,1,147.89,34Zm-.83,3.35a1.31,1.31,0,0,0,.34-.94V36.2h-.17a7.57,7.57,0,0,0-1.16.07,1.14,1.14,0,0,0-.58.23.6.6,0,0,0-.17.46.73.73,0,0,0,.25.57.92.92,0,0,0,.63.22A1.14,1.14,0,0,0,147.06,37.38Z"/><path class="cls-1" d="M156.86,31.65A.44.44,0,0,1,157,32v6a.46.46,0,0,1-.13.35.56.56,0,0,1-.71,0A.46.46,0,0,1,156,38v-.39a1.5,1.5,0,0,1-.62.65,1.89,1.89,0,0,1-.94.23,2,2,0,0,1-1.09-.31,2.05,2.05,0,0,1-.75-.87,3,3,0,0,1-.27-1.29,2.94,2.94,0,0,1,.27-1.29,2,2,0,0,1,1.84-1.15,1.87,1.87,0,0,1,.94.23,1.52,1.52,0,0,1,.62.64V32a.42.42,0,0,1,.13-.32.5.5,0,0,1,.35-.12A.51.51,0,0,1,156.86,31.65Zm-1.18,5.61A1.94,1.94,0,0,0,156,36a2,2,0,0,0-.34-1.24,1.18,1.18,0,0,0-1-.44,1.21,1.21,0,0,0-1,.43,1.88,1.88,0,0,0-.35,1.23,2,2,0,0,0,.36,1.25,1.31,1.31,0,0,0,2,0Z"/><path class="cls-1" d="M162.45,37.32a.42.42,0,0,1,.09.27.56.56,0,0,1-.35.47,3.1,3.1,0,0,1-.74.3,3,3,0,0,1-.77.11,2.39,2.39,0,0,1-1.77-.65,2.43,2.43,0,0,1-.65-1.79,2.8,2.8,0,0,1,.29-1.29,2.1,2.1,0,0,1,.8-.87,2.25,2.25,0,0,1,1.18-.31,1.92,1.92,0,0,1,1.5.61,2.36,2.36,0,0,1,.55,1.65c0,.26-.12.39-.35.39h-3q.1,1.5,1.44,1.5a1.77,1.77,0,0,0,.62-.1,4.48,4.48,0,0,0,.55-.25l.16-.08a.53.53,0,0,1,.22-.06A.27.27,0,0,1,162.45,37.32Zm-2.81-2.69a1.67,1.67,0,0,0-.41,1h2.5a1.62,1.62,0,0,0-.33-1,1.07,1.07,0,0,0-.86-.35A1.18,1.18,0,0,0,159.64,34.64Z"/><path class="cls-1" d="M68.59,48.56a2.78,2.78,0,0,1-1.12-1.21,4.66,4.66,0,0,1,0-3.72,2.78,2.78,0,0,1,1.12-1.21A3.34,3.34,0,0,1,70.29,42a3.67,3.67,0,0,1,1.21.2,2.94,2.94,0,0,1,1,.58.47.47,0,0,1,.18.39.46.46,0,0,1-.1.3.29.29,0,0,1-.23.12.5.5,0,0,1-.32-.13,3.43,3.43,0,0,0-.85-.49,2.5,2.5,0,0,0-.87-.14,2,2,0,0,0-1.64.69,3.72,3.72,0,0,0,0,4,2,2,0,0,0,1.64.69,2.38,2.38,0,0,0,.85-.15,4.1,4.1,0,0,0,.87-.48.64.64,0,0,1,.32-.13.29.29,0,0,1,.23.12.46.46,0,0,1,.1.3.47.47,0,0,1-.18.39,2.93,2.93,0,0,1-1,.58,3.66,3.66,0,0,1-1.21.2A3.33,3.33,0,0,1,68.59,48.56Z"/><path class="cls-1" d="M74.78,48.67a2,2,0,0,1-.81-.86,3.09,3.09,0,0,1,0-2.6,2,2,0,0,1,.81-.86,2.65,2.65,0,0,1,2.45,0,2,2,0,0,1,.81.86,3.09,3.09,0,0,1,0,2.6,2,2,0,0,1-.81.86,2.65,2.65,0,0,1-2.45,0Zm2.22-.9a2.42,2.42,0,0,0,0-2.5,1.35,1.35,0,0,0-2,0,2.42,2.42,0,0,0,0,2.5,1.37,1.37,0,0,0,2,0Z"/><path class="cls-1" d="M86.59,46v2.52a.44.44,0,0,1-.14.34.52.52,0,0,1-.36.12.5.5,0,0,1-.35-.12.44.44,0,0,1-.14-.34V46a1.38,1.38,0,0,0-.21-.86.81.81,0,0,0-.67-.27,1,1,0,0,0-.84.36,1.48,1.48,0,0,0-.31,1v2.28a.44.44,0,0,1-.14.34.52.52,0,0,1-.36.12.5.5,0,0,1-.35-.12.44.44,0,0,1-.14-.34V46a1.38,1.38,0,0,0-.21-.86.81.81,0,0,0-.67-.27,1.06,1.06,0,0,0-.85.36,1.46,1.46,0,0,0-.31,1v2.28a.44.44,0,0,1-.14.34.5.5,0,0,1-.35.12.52.52,0,0,1-.35-.12.43.43,0,0,1-.14-.34V44.54a.43.43,0,0,1,.15-.34.51.51,0,0,1,.35-.13.47.47,0,0,1,.33.12.43.43,0,0,1,.13.33v.36a1.48,1.48,0,0,1,.59-.62,1.75,1.75,0,0,1,.87-.21,1.66,1.66,0,0,1,.9.22,1.33,1.33,0,0,1,.53.69,1.61,1.61,0,0,1,.63-.66,1.83,1.83,0,0,1,.95-.25Q86.59,44.06,86.59,46Z"/><path class="cls-1" d="M92,47.82a.42.42,0,0,1,.09.27.56.56,0,0,1-.35.47,3.1,3.1,0,0,1-.74.3,3,3,0,0,1-.77.11,2.39,2.39,0,0,1-1.77-.65,2.43,2.43,0,0,1-.65-1.79,2.8,2.8,0,0,1,.29-1.29,2.1,2.1,0,0,1,.8-.87,2.25,2.25,0,0,1,1.18-.31,1.92,1.92,0,0,1,1.5.61,2.36,2.36,0,0,1,.55,1.65c0,.26-.12.39-.35.39h-3q.1,1.5,1.44,1.5a1.77,1.77,0,0,0,.62-.1,4.48,4.48,0,0,0,.55-.25l.16-.08a.53.53,0,0,1,.22-.06A.28.28,0,0,1,92,47.82ZM89.2,45.14a1.67,1.67,0,0,0-.41,1h2.5a1.62,1.62,0,0,0-.33-1,1.07,1.07,0,0,0-.86-.35A1.18,1.18,0,0,0,89.2,45.14Z"/><path class="cls-1" d="M96.34,44.48a.43.43,0,0,1-.11.32.57.57,0,0,1-.37.13l-.29,0a1.25,1.25,0,0,0-.91.43,1.38,1.38,0,0,0-.3.89v2.22a.44.44,0,0,1-.14.35.52.52,0,0,1-.35.12.54.54,0,0,1-.35-.12.43.43,0,0,1-.14-.35V44.55a.43.43,0,0,1,.14-.34.52.52,0,0,1,.35-.12.46.46,0,0,1,.32.12.43.43,0,0,1,.13.33V45a1.43,1.43,0,0,1,.56-.65,1.88,1.88,0,0,1,.83-.26h.14Q96.34,44,96.34,44.48Z"/><path class="cls-1" d="M97.92,48.67a2,2,0,0,1-.8-.85,3,3,0,0,1,0-2.58,2.14,2.14,0,0,1,.83-.87,2.38,2.38,0,0,1,1.22-.31,2.69,2.69,0,0,1,.74.11,2.55,2.55,0,0,1,.66.29.6.6,0,0,1,.31.49.43.43,0,0,1-.09.28.27.27,0,0,1-.22.11.38.38,0,0,1-.17,0l-.22-.13a2.74,2.74,0,0,0-.45-.24,1.37,1.37,0,0,0-.5-.08,1.24,1.24,0,0,0-1,.45,1.91,1.91,0,0,0-.36,1.24,1.86,1.86,0,0,0,.36,1.23,1.25,1.25,0,0,0,1,.43,1.41,1.41,0,0,0,.51-.09,2.73,2.73,0,0,0,.46-.23l.21-.12a.48.48,0,0,1,.19,0,.27.27,0,0,1,.22.11.44.44,0,0,1,.09.28.44.44,0,0,1-.07.25.87.87,0,0,1-.25.23,2.34,2.34,0,0,1-.68.3,3,3,0,0,1-.79.11A2.36,2.36,0,0,1,97.92,48.67Z"/><path class="cls-1" d="M102,43a.53.53,0,0,1-.17-.41.52.52,0,0,1,.17-.4.64.64,0,0,1,.45-.15.64.64,0,0,1,.44.15.51.51,0,0,1,.17.4.53.53,0,0,1-.16.41.72.72,0,0,1-.89,0Zm.09,5.86a.43.43,0,0,1-.14-.35V44.55a.44.44,0,0,1,.14-.35.52.52,0,0,1,.35-.12.5.5,0,0,1,.35.12.45.45,0,0,1,.14.35v3.94a.44.44,0,0,1-.14.35.52.52,0,0,1-.35.12A.53.53,0,0,1,102.13,48.84Z"/><path class="cls-1" d="M105.29,48.67a2,2,0,0,1-.81-.86,3.09,3.09,0,0,1,0-2.6,2,2,0,0,1,.81-.86,2.65,2.65,0,0,1,2.45,0,2,2,0,0,1,.81.86,3.09,3.09,0,0,1,0,2.6,2,2,0,0,1-.81.86,2.65,2.65,0,0,1-2.45,0Zm2.22-.9a2.42,2.42,0,0,0,0-2.5,1.35,1.35,0,0,0-2,0,2.42,2.42,0,0,0,0,2.5,1.37,1.37,0,0,0,2,0Z"/><path class="cls-1" d="M113.12,48.78a.48.48,0,0,1-.13-.35V42.56a.48.48,0,0,1,.13-.35.49.49,0,0,1,.36-.13H117a.51.51,0,0,1,.34.11.38.38,0,0,1,.12.3.36.36,0,0,1-.12.3.52.52,0,0,1-.34.1H114V45h2.89a.51.51,0,0,1,.34.11.43.43,0,0,1,0,.6.5.5,0,0,1-.34.11H114V48.1H117c.31,0,.47.13.47.4a.38.38,0,0,1-.12.3.51.51,0,0,1-.34.11h-3.57A.5.5,0,0,1,113.12,48.78Z"/><path class="cls-1" d="M118.84,48.84a.43.43,0,0,1-.14-.35v-6a.44.44,0,0,1,.14-.35.52.52,0,0,1,.35-.12.5.5,0,0,1,.35.12.45.45,0,0,1,.14.35v6a.44.44,0,0,1-.14.35.52.52,0,0,1-.35.12A.53.53,0,0,1,118.84,48.84Z"/><path class="cls-1" d="M125.12,47.82a.42.42,0,0,1,.09.27.56.56,0,0,1-.35.47,3.1,3.1,0,0,1-.74.3,3,3,0,0,1-.77.11,2.39,2.39,0,0,1-1.77-.65,2.43,2.43,0,0,1-.65-1.79,2.8,2.8,0,0,1,.29-1.29,2.1,2.1,0,0,1,.8-.87,2.25,2.25,0,0,1,1.18-.31,1.92,1.92,0,0,1,1.5.61,2.36,2.36,0,0,1,.55,1.65c0,.26-.12.39-.35.39h-3q.1,1.5,1.44,1.5a1.77,1.77,0,0,0,.62-.1,4.48,4.48,0,0,0,.55-.25l.16-.08a.53.53,0,0,1,.22-.06A.28.28,0,0,1,125.12,47.82Zm-2.81-2.69a1.67,1.67,0,0,0-.41,1h2.5a1.62,1.62,0,0,0-.33-1,1.07,1.07,0,0,0-.86-.35A1.18,1.18,0,0,0,122.31,45.14Z"/><path class="cls-1" d="M127.34,48.67a2,2,0,0,1-.8-.85,3,3,0,0,1,0-2.58,2.14,2.14,0,0,1,.83-.87,2.38,2.38,0,0,1,1.22-.31,2.69,2.69,0,0,1,.74.11,2.55,2.55,0,0,1,.66.29.6.6,0,0,1,.31.49.43.43,0,0,1-.09.28.27.27,0,0,1-.22.11.38.38,0,0,1-.17,0l-.22-.13a2.74,2.74,0,0,0-.45-.24,1.37,1.37,0,0,0-.5-.08,1.24,1.24,0,0,0-1,.45,1.91,1.91,0,0,0-.36,1.24,1.86,1.86,0,0,0,.36,1.23,1.25,1.25,0,0,0,1,.43,1.41,1.41,0,0,0,.51-.09,2.73,2.73,0,0,0,.46-.23l.21-.12a.48.48,0,0,1,.19,0,.27.27,0,0,1,.22.11.44.44,0,0,1,.09.28.44.44,0,0,1-.07.25.87.87,0,0,1-.25.23,2.34,2.34,0,0,1-.68.3,3,3,0,0,1-.79.11A2.36,2.36,0,0,1,127.34,48.67Z"/><path class="cls-1" d="M134.32,48.32a.35.35,0,0,1,.09.26.34.34,0,0,1-.15.3.7.7,0,0,1-.44.08l-.26,0a1.7,1.7,0,0,1-1.17-.48,1.78,1.78,0,0,1-.39-1.25V44.93h-.58q-.43,0-.43-.38a.36.36,0,0,1,.11-.28.45.45,0,0,1,.31-.1H132v-1a.46.46,0,0,1,.13-.35.49.49,0,0,1,.35-.13.51.51,0,0,1,.36.13.45.45,0,0,1,.14.35v1h1a.45.45,0,0,1,.31.1.36.36,0,0,1,.11.28.35.35,0,0,1-.11.28.47.47,0,0,1-.31.1h-1v2.35a1,1,0,0,0,.19.67.82.82,0,0,0,.58.24l.27,0A.49.49,0,0,1,134.32,48.32Z"/><path class="cls-1" d="M138.31,44.48a.43.43,0,0,1-.11.32.57.57,0,0,1-.37.13l-.29,0a1.25,1.25,0,0,0-.91.43,1.38,1.38,0,0,0-.3.89v2.22a.44.44,0,0,1-.14.35.52.52,0,0,1-.35.12.54.54,0,0,1-.35-.12.43.43,0,0,1-.14-.35V44.55a.43.43,0,0,1,.14-.34.52.52,0,0,1,.35-.12.46.46,0,0,1,.32.12.43.43,0,0,1,.13.33V45a1.43,1.43,0,0,1,.56-.65,1.88,1.88,0,0,1,.83-.26h.14Q138.31,44,138.31,44.48Z"/><path class="cls-1" d="M139.9,48.67a2,2,0,0,1-.81-.86,3.09,3.09,0,0,1,0-2.6,2,2,0,0,1,.81-.86,2.65,2.65,0,0,1,2.45,0,2,2,0,0,1,.81.86,3.09,3.09,0,0,1,0,2.6,2,2,0,0,1-.81.86,2.65,2.65,0,0,1-2.45,0Zm2.22-.9a2.42,2.42,0,0,0,0-2.5,1.35,1.35,0,0,0-2,0,2.42,2.42,0,0,0,0,2.5,1.37,1.37,0,0,0,2,0Zm-1-4.17a.27.27,0,0,1-.19-.08.24.24,0,0,1-.08-.18.26.26,0,0,1,.07-.17l1-1.37a.55.55,0,0,1,.45-.26.42.42,0,0,1,.31.13.41.41,0,0,1,.13.3.55.55,0,0,1-.23.42l-1.31,1.15A.27.27,0,0,1,141.15,43.6Z"/><path class="cls-1" d="M148.94,46v2.52a.45.45,0,0,1-.13.34.52.52,0,0,1-.36.12.49.49,0,0,1-.35-.13.45.45,0,0,1-.13-.34V46a1.35,1.35,0,0,0-.24-.88.92.92,0,0,0-.74-.28,1.27,1.27,0,0,0-.95.37,1.36,1.36,0,0,0-.36,1v2.28a.45.45,0,0,1-.13.34.49.49,0,0,1-.35.13.51.51,0,0,1-.36-.13.44.44,0,0,1-.14-.34V44.54a.44.44,0,0,1,.14-.33.5.5,0,0,1,.35-.13.46.46,0,0,1,.34.13.45.45,0,0,1,.13.33v.4a1.58,1.58,0,0,1,.65-.65,2,2,0,0,1,.94-.22Q148.94,44.06,148.94,46Z"/><path class="cls-1" d="M150.46,43a.53.53,0,0,1-.17-.41.52.52,0,0,1,.17-.4.64.64,0,0,1,.45-.15.64.64,0,0,1,.44.15.51.51,0,0,1,.17.4.53.53,0,0,1-.16.41.72.72,0,0,1-.89,0Zm.09,5.86a.43.43,0,0,1-.14-.35V44.55a.44.44,0,0,1,.14-.35.52.52,0,0,1,.35-.12.5.5,0,0,1,.35.12.45.45,0,0,1,.14.35v3.94a.44.44,0,0,1-.14.35.52.52,0,0,1-.35.12A.53.53,0,0,1,150.55,48.84Z"/><path class="cls-1" d="M153.7,48.67a2,2,0,0,1-.8-.85,3,3,0,0,1,0-2.58,2.14,2.14,0,0,1,.83-.87,2.38,2.38,0,0,1,1.22-.31,2.69,2.69,0,0,1,.74.11,2.55,2.55,0,0,1,.66.29.6.6,0,0,1,.31.49.43.43,0,0,1-.09.28.27.27,0,0,1-.22.11.38.38,0,0,1-.17,0l-.22-.13a2.74,2.74,0,0,0-.45-.24,1.37,1.37,0,0,0-.5-.08,1.24,1.24,0,0,0-1,.45,1.91,1.91,0,0,0-.36,1.24,1.86,1.86,0,0,0,.36,1.23,1.25,1.25,0,0,0,1,.43,1.41,1.41,0,0,0,.51-.09,2.73,2.73,0,0,0,.46-.23l.21-.12a.48.48,0,0,1,.19,0,.27.27,0,0,1,.22.11.44.44,0,0,1,.09.28.44.44,0,0,1-.07.25.87.87,0,0,1-.25.23,2.34,2.34,0,0,1-.68.3,3,3,0,0,1-.79.11A2.36,2.36,0,0,1,153.7,48.67Z"/><path class="cls-1" d="M158.57,48.67a2,2,0,0,1-.81-.86,3.09,3.09,0,0,1,0-2.6,2,2,0,0,1,.81-.86,2.65,2.65,0,0,1,2.45,0,2,2,0,0,1,.81.86,3.09,3.09,0,0,1,0,2.6,2,2,0,0,1-.81.86,2.65,2.65,0,0,1-2.45,0Zm2.22-.9a2.42,2.42,0,0,0,0-2.5,1.35,1.35,0,0,0-2,0,2.42,2.42,0,0,0,0,2.5,1.37,1.37,0,0,0,2,0Z"/><path class="cls-1" d="M21.78,40.46c-.31,0-.61.05-.93.05h-.06a13.51,13.51,0,0,1-11.53-7,4.32,4.32,0,1,0-7.46,4.36A22.21,22.21,0,0,0,20.64,49.16H21a21,21,0,0,0,8.94-2.07,22.8,22.8,0,0,1-8.16-6.63"/><path class="cls-1" d="M38.11,9.54a22.82,22.82,0,0,0-8.16-6.63A21,21,0,0,0,21,.84h-.36A22.21,22.21,0,0,0,1.81,12.09a4.32,4.32,0,1,0,7.46,4.36,13.51,13.51,0,0,1,11.53-7h.06c.31,0,.62,0,.93.05a13,13,0,0,1,8.16,3.8,15.74,15.74,0,0,1,4.17,7.39,17,17,0,0,1,.53,4.16v.21a17,17,0,0,1-.53,4.16,15.73,15.73,0,0,1-4.17,7.39,13,13,0,0,0,8.16,3.8A25,25,0,0,0,43.3,25.11v-.21A25,25,0,0,0,38.11,9.54"/><path class="cls-2" d="M38.11,9.54c.31,0,.61-.05.93-.05h.06a13.51,13.51,0,0,1,11.53,7,4.32,4.32,0,1,0,7.46-4.36A22.21,22.21,0,0,0,39.25.84h-.36a21,21,0,0,0-8.94,2.07,22.82,22.82,0,0,1,8.16,6.63"/><path class="cls-2" d="M54.41,31.36h0a4.37,4.37,0,0,0-3.79,2.19,13.51,13.51,0,0,1-11.53,7H39c-.31,0-.62,0-.93-.05a13,13,0,0,1-8.16-3.8,15.73,15.73,0,0,1-4.17-7.39h8.35a17,17,0,0,0,.53-4.16V24.9a17,17,0,0,0-.53-4.16H25.77a15.74,15.74,0,0,1,4.17-7.39,13,13,0,0,0-8.16-3.8A25,25,0,0,0,16.6,24.89v.21a25,25,0,0,0,5.19,15.35,22.81,22.81,0,0,0,8.16,6.63,21,21,0,0,0,8.94,2.07h.36A22.21,22.21,0,0,0,58.09,37.91a4.33,4.33,0,0,0-3.68-6.55"/></g></svg>