<svg xmlns="http://www.w3.org/2000/svg" width="184.903" height="92.141" viewBox="0 0 184.903 92.141">
    <defs>
        <style>
            .cls-1{fill:#006db6}.cls-1,.cls-2,.cls-3{fill-rule:evenodd}.cls-2{fill:#c5c7c8}.cls-3{fill:#5889be}
        </style>
    </defs>
    <g id="Group_106" transform="translate(-249.58 -20.591)">
        <path id="Path_151" d="M252.3 85.441c5.954 1.949 12.761-10.616 16.26-13.438l-.038 2.886c.007 3.379 1 7.425 3.085 8.831 3.526 1.423 7.106-3.372 8.51-4.883.913-.983 6.258-7 6.922-7.412l.066 4.325c.1 4.145 1.124 4.185 2.6 6.392 4.316 1.605 3.924-2.4 5.5-5.624a78.772 78.772 0 0 1 15.155-20.594l-1.318 4.352c.009 2.532-1.354 6.974-1.4 10.652-.045 3.7.326 7.762 2.768 9.379 2.412 1.027 3.093.488 3.9-1.5a36.467 36.467 0 0 1 1.931-4.112 69.123 69.123 0 0 1 4.64-7.459c1.829-2.48 3.4-4.52 5.314-6.777.785-.925 5.55-5.916 5.69-6.2.177-.195-.1-.181.252-.253.218.426.024.13-.048.215l-1.181 3.816c-1.084 7.579-4.037 14.411 1.335 20.586 3.519 1.051 8.886-6.483 10.893-7.844L341.624 75c-.019.936-2.04 6.922-2.463 8.454-.79 2.868-1.562 5.908-2.162 8.89a44.211 44.211 0 0 0-1.144 9.853c.147 4.856 1.392 5.222 3.321 7.722l3.626 1.223c.316-1.13-.384-3.308.155-5.323.406-1.516.826-3.1 1.259-4.639 2.283-8.092 5.576-19.708 8.515-27.024 4.314-10.738 12.3-23.038 19.379-27.962l.27-.188-.178.251-.748 3.028c.009 2.214-3.243 10.128-4.243 12.074a17.969 17.969 0 0 1-3.361 4.745c-4.01 3.689-4.978 1.395-5.5 1.521-3.6 2.147 1.1 6.983 1.182 7.294 2.09.973 2.918 1.89 6.015 1a11.074 11.074 0 0 0 4.553-2.978 32.9 32.9 0 0 0 5.874-9.171 67.014 67.014 0 0 0 3.8-11.24c1.36-5.577 1.616-7.376-.131-12.579-1-.926-1.184-2.174-3.355-2.464a6.031 6.031 0 0 0-4.386 1.419 33.436 33.436 0 0 0-5.814 6.082C365 46.169 362.921 49.3 361.93 50.5c.48-2.115 3.2-5.8 2.787-7.857-1.374-1.752-7.153-5.684-9.094-2.168-1.6 2.892-3.036 6.318-4.416 9.453-.808 1.835-3.444 8.746-4.221 9.638a86.883 86.883 0 0 1-7.186 6.8l-2.2 2.023c.711-6.462 11.13-22.364 10.8-24.454-.866-1.879-3.624-3.491-6.559-3.738-3.247-.272-5.394 2.26-6.864 3.673a61.755 61.755 0 0 0-5.051 5.423c-.863 1.093-3.9 4.921-4.747 5.675l-6.45 8.58a52.135 52.135 0 0 1 4.331-8.886c1.2-1.947 5.046-6.019 4.113-8.366-1.669-3.261-7.8-5.888-11.67-2.576-3.228 2.764-5.4 6.174-8.322 9.189l-8.813 11.922c.429-1.938 3.234-6.916 4.236-8.645 1.353-2.335 4.738-5.376 3.891-8.259-1.339-.939-1.453-2.165-4.086-3.2-1.83-.72-4.571-1.478-5.848-.037-3.112 3.515-5.817 9.864-7.3 14.831-.96 3.225-.432 2.935-2.444 4.928-1.015 1.007-6.92 6.881-7.642 7.234l-2.25 2c.584-3.883 3.329-9.563 4.87-12.942 1-2.2 5.793-10.07 5.277-12.056-.719-1.462-2.069-2.29-4.1-2.826-2.839-.749-3.946-.408-5.293 1.189-2.719 3.223-5.322 9.752-6.742 14.2-.972 3.047-.863 2.514-2.7 4.375-1.117 1.129-6.144 6.2-7.34 6.792l-1.936 1.3c1.68-10.722 8.292-25.484 13.2-35.14.939-1.848 5.608-9.066 5.421-10.544-.466-1.485-5.784-4.791-7.626-3.764-1.272.71-3.987 5.357-5 7.1-6.3 10.89-14.951 31.779-15.345 44.718-.149 4.891.255 6.468 2.7 9.35" class="cls-1"/>
        <path id="Path_152" d="M391.557 61.8l-2.372 2.116c.8-6.639 10.607-22.185 10.192-25.1a6.7 6.7 0 0 0-4.826-2.91c-3.331-.572-4.031.345-5.337 2.327-4.936 7.5-9.708 21.051-8.065 30.4.624 3.548 1.477 3.385 2.634 5.249 3.449 1.32 5.357-1.631 6.916-3.19a55.148 55.148 0 0 0 5.374-5.646l.967 1.927 2.314 2.818c3.883 1.933 6.989 4.015 12.428 1.634a22.179 22.179 0 0 0 8.57-7.365c1.537-2.1 1.372-2.679 3.67-4.29 4.241-2.973 9.583-8.385 9.1-14.862-.429-3.812-4.02 3.109-4.712 3.734a21.374 21.374 0 0 1-1.864 2.178 32.746 32.746 0 0 1 .466-3.3 20.538 20.538 0 0 0-.241-6.95 26.466 26.466 0 0 0-1.06-2.722c-1.5-1.83-2.93-3.859-6.3-4.262-5.417-.648-11.057 2.87-13.964 7.308-2.123 3.241-1.588 4.411-2.849 7.75-2.735.373-2.831-.1-4.193 1.876-2.913 4.237-1.413 6.1-3.685 8.407a40.669 40.669 0 0 1-3.163 2.873m19.3-7.112c-5.226-3.13.756-17.592 6.379-16.116l.135-.063.664 1.747c.5 3.383-1.839 13.618-3.343 15.954l-.081.206zm.229 8.4a6.283 6.283 0 0 1-1.872 2.224 2.477 2.477 0 0 1-2.936.528c-1.149-.625-1.407-1.274-1.286-3.009a12.365 12.365 0 0 1 .7-3.5c4.052 2.748 2.05 1.437 6.148 2.825z" class="cls-1"/>
        <path id="Path_153" d="M259.382 110.948c.821-.028 4.633-2.417 6.157-3.032 2.191-.885 4.437-1.673 6.709-2.432 12.316-4.115 27.772-5.159 40.819-4.394 4.8.282 5.5 2.917 6.825 2.584l-1.2-4.065c-1.266-.96-2.156-3.046-6.239-4.614-6.881-2.64-22.731-1.14-29.8-.213a94.507 94.507 0 0 0-17.8 3.736c-2.258.768-6.131 2.384-6.831 3.948-1.252 2.793.127 6.565 1.363 8.482" class="cls-1"/>
        <path id="Path_154" d="M339.176 109.923a5.184 5.184 0 0 0 5.077 2.354c.2-1.1-.745-2.391-.089-4.94.395-1.534.811-3.034 1.23-4.527 2.368-8.433 5.136-18.081 8.12-26.1a73.283 73.283 0 0 1 7.711-15.148c1.434-2.14 9.116-12.835 10.229-12.278l.748-3.028-.092-.063c-7.081 4.924-15.065 17.224-19.379 27.962-2.939 7.316-6.232 18.932-8.515 27.024-.433 1.535-.853 3.123-1.259 4.639-.539 2.015.161 4.193-.155 5.323z" class="cls-2"/>
        <path id="Path_155" d="M259.382 110.948l1.917 1.784c.025 0 4.825-2.65 6.06-3.146 2.195-.881 4.4-1.642 6.725-2.418 11.988-4 28.152-5.138 40.881-4.317 3.094.2 6.173 2.567 6.312 2.552.478-2.5-1.36-4.772-2.587-5.794l1.2 4.065c-1.325.333-2.022-2.3-6.825-2.584-13.047-.765-28.5.279-40.819 4.394-2.272.759-4.518 1.547-6.709 2.432-1.524.615-5.336 3-6.157 3.032" class="cls-2"/>
        <path id="Path_156" d="M284.312 41.305c5.221 2.089 8.482-5.939 6.838-9.833-1.047-3.989-5.909-.511-7.119 1.276a7.836 7.836 0 0 0-1.478 4.407c0 3.047 1.244 3 1.759 4.15" class="cls-1"/>
        <path id="Path_157" d="M397.465 32.29c5.522 1.833 7.475-5.057 6.778-9.993-2.3-3.7-5.88-.5-7.181 1.359a7.585 7.585 0 0 0-1.488 4.5c.03 3.047 1.3 3.01 1.891 4.13" class="cls-1"/>
        <path id="Path_158" d="M260.893 72.415c1.272-9.58 10.548-29.947 16.369-39.209 1.05-1.672 2.7-4 .316-5.174.187 1.478-4.482 8.7-5.421 10.544-4.908 9.656-11.52 24.418-13.2 35.14z" class="cls-2"/>
        <path id="Path_159" d="M399.354 69.783c2.03 3.015 7.954 5.058 12.838 3.367 5.13-1.776 8.732-6.41 11.214-10.471.56-.917 1.648-1.323 2.467-1.954a29.069 29.069 0 0 0 4.49-4.212c1.562-1.918 2.365-2.315 3.295-5.4 1.931-6.405-.071-5.692-.533-6.209.48 6.477-4.862 11.889-9.1 14.862-2.3 1.611-2.133 2.186-3.67 4.29a22.179 22.179 0 0 1-8.57 7.365c-5.439 2.381-8.545.3-12.428-1.634" class="cls-2"/>
        <path id="Path_160" d="M359.532 74.923c12.615 13.754 28.375-28.883 20.116-34.965 1.747 5.2 1.491 7 .131 12.579a67.014 67.014 0 0 1-3.8 11.24 32.9 32.9 0 0 1-5.874 9.171 11.074 11.074 0 0 1-4.553 2.978c-3.1.887-3.925-.03-6.015-1" class="cls-2"/>
        <path id="Path_161" d="M310.413 80.307a3.308 3.308 0 0 0 3.872 1.717c1-.319 1.631-2.66 2.077-3.672 2.966-6.736 9.779-15.531 14.547-20.309l1.181-3.816-.2.038c-.14.28-4.9 5.271-5.69 6.2-1.916 2.257-3.485 4.3-5.314 6.777a69.123 69.123 0 0 0-4.64 7.459 36.467 36.467 0 0 0-1.931 4.112c-.8 1.986-1.486 2.525-3.9 1.5" class="cls-2"/>
        <path id="Path_162" d="M289.71 82.142c.726.984 1.786 2.264 3.823 1.711 1.266-.343 1.481-2.509 1.949-3.664a46.173 46.173 0 0 1 3.852-7.508c1.241-1.954 9.36-13.587 9.709-12.4l1.318-4.352a78.772 78.772 0 0 0-15.155 20.594c-1.572 3.222-1.18 7.229-5.5 5.624" class="cls-2"/>
        <path id="Path_163" d="M376.143 98.269l1.793-.018v-7.287l5.625 7.422c.333-.248 1.246-.117 1.683-.117V87.776l-1.76.01-.034 7.275-4.7-6.177c-.9-1.271-.655-1.108-2.555-1.108z" class="cls-1"/>
        <path id="Path_164" d="M413.818 98.263V87.805h-1.642l-.021 7.388-.245-.273c-1.137-1.718-3.164-4.146-4.524-6.064-.908-1.28-.637-1.082-2.543-1.08l-.043 10.491h1.825v-7.283l5.574 7.379c.294-.218 1.221-.1 1.615-.1" class="cls-1"/>
        <path id="Path_165" d="M366.411 87.805c-6.917 1.015-5.748 11.369 1.731 10.461 6.966-.846 5.826-11.569-1.731-10.461m.177 1.645a3.653 3.653 0 1 1 1.392 7.171c-4.742.827-6.165-6.198-1.392-7.171z" class="cls-1"/>
        <path id="Path_166" d="M418.076 98.269l7.648-.005-.011-1.612-5.851-.028V93.8l5.09-.011v-1.553l-5.089-.078.012-2.738h5.674l-.055-1.644h-7.378z" class="cls-1"/>
        <path id="Path_167" d="M279.175 71.678c.21-1.994 3.979-9.832 4.971-11.828 1.141-2.3 6.406-9.687 2.926-11.166.516 1.986-4.272 9.854-5.277 12.056-1.541 3.379-4.286 9.059-4.87 12.942z" class="cls-2"/>
        <path id="Path_168" d="M339.8 66.362c.721-3.2 3.711-8.6 5.2-11.44 1.058-2.031 6.816-9.574 3.4-10.991.33 2.09-10.089 17.992-10.8 24.454z" class="cls-2"/>
        <path id="Path_169" d="M391.557 61.8c-.506-.95 4.116-10.249 4.832-11.68.94-1.88 1.9-3.707 2.839-5.561 1.219-2.4 2.5-3.713.149-5.745.415 2.917-9.389 18.463-10.192 25.1z" class="cls-2"/>
        <path id="Path_170" d="M252.3 85.441c4.736 6.27 13.452-8.317 16.222-10.552l.041-2.889c-3.5 2.822-10.306 15.387-16.26 13.438" class="cls-2"/>
        <path id="Path_171" d="M271.61 83.72c2.112 4.782 7.186-.912 8.473-2.117 2.356-2.206 4.5-5.077 6.793-7.329l.232 1.476-.066-4.325c-.664.411-6.009 6.429-6.922 7.412-1.4 1.511-4.984 6.306-8.51 4.883" class="cls-2"/>
        <path id="Path_172" d="M410.857 54.684c-3.411-6.918 5.163-16.777 7.178-14.432l-.664-1.747-.135.063c-5.623-1.476-11.6 12.986-6.379 16.116" class="cls-2"/>
        <path id="Path_173" d="M383.783 73.874c4.37 5.669 10.354-4.869 13.257-6.909l-.967-1.927a55.148 55.148 0 0 1-5.374 5.646c-1.559 1.559-3.467 4.51-6.916 3.19" class="cls-2"/>
        <path id="Path_174" d="M325.174 54.964c-.8-1.121 6.534-5.824 1.994-8.672.933 2.347-2.918 6.419-4.113 8.366a52.135 52.135 0 0 0-4.331 8.886z" class="cls-2"/>
        <path id="Path_175" d="M389.418 98.269h6.3v-1.681h-4.506v-8.785l-1.74-.031z" class="cls-1"/>
        <path id="Path_176" d="M307.176 52.9c-.518-.667 2.438-.876-.686-4.982.847 2.883-2.538 5.924-3.891 8.259-1 1.729-3.807 6.707-4.236 8.645z" class="cls-2"/>
        <path id="Path_177" d="M397.465 32.29c4.511 6.991 11.6-6.806 6.778-9.993.7 4.936-1.256 11.826-6.778 9.993" class="cls-2"/>
        <path id="Path_178" d="M284.312 41.305c.965.913 1.529 2.377 3.87 1.792a5.051 5.051 0 0 0 3.117-2.786c1.174-2.1 2.677-7.988-.149-8.839 1.644 3.894-1.617 11.922-6.838 9.833" class="cls-2"/>
        <path id="Path_179" d="M332.244 78.629c3.34 4.9 8.2-3.824 9.38-3.625l1.513-4.219c-2.007 1.361-7.374 8.895-10.893 7.844" class="cls-2"/>
        <path id="Path_180" d="M398.947 98.246l1.652.033V87.827h-1.651z" class="cls-1"/>
        <path id="Path_181" d="M428.413 48.634c-.339-.671.619-5.112-1.155-8.709a10.074 10.074 0 0 0-.666-1.095c-.387-.578-.4-.749-.878-.986a26.466 26.466 0 0 1 1.06 2.722 20.538 20.538 0 0 1 .241 6.95 32.746 32.746 0 0 0-.466 3.3 21.374 21.374 0 0 0 1.864-2.178" class="cls-2"/>
        <path id="Path_182" d="M406.278 65.833a12.741 12.741 0 0 1 .665-5.155c.656.987 2.692 1.682 4.143 2.4l.757-.931c-4.1-1.388-2.1-.077-6.148-2.825a12.365 12.365 0 0 0-.7 3.5c-.121 1.735.137 2.384 1.286 3.009" class="cls-2"/>
        <path id="Path_183" d="M366.093 44.995a2.94 2.94 0 0 0-1.08-2.123c-.241-.212.022-.019-.3-.229.416 2.055-2.307 5.742-2.787 7.857.991-1.2 3.07-4.331 4.163-5.505" class="cls-2"/>
        <path id="Path_184" d="M331.886 54.265l.2-.038c.072-.085.266.211.048-.215-.357.072-.075.058-.252.253" class="cls-3"/>
        <path id="Path_185" d="M372.2 46.261l.178-.251-.27.188z" class="cls-3"/>
    </g>
</svg>
